<svg width="207" height="40" viewBox="0 0 207 40" fill="none" xmlns="http://www.w3.org/2000/svg">
<path d="M43.1057 23.952C42.7428 24.4947 42.2505 24.9372 41.6738 25.2391C41.0971 25.5411 40.4544 25.6928 39.8044 25.6805C37.3284 25.6805 34.9703 23.7317 34.9703 20.1798V20.1391C34.9703 16.5804 37.2846 14.6316 39.7943 14.6316C40.4301 14.6186 41.06 14.756 41.6334 15.0327C42.2068 15.3093 42.7077 15.7176 43.0956 16.2245V14.8248H46.1005V28.6529H43.0956L43.1057 23.952ZM43.1462 20.173V20.1323C43.1462 18.3631 41.9772 17.1905 40.5758 17.1905C39.1744 17.1905 37.9853 18.3428 37.9853 20.1323V20.1798C37.9853 21.9489 39.1711 23.1216 40.5758 23.1216C41.9806 23.1216 43.1462 21.9422 43.1462 20.1798V20.173Z" fill="#00AEEF"/>
<path d="M47.1382 20.1799V20.1392C47.1382 16.5805 49.4492 14.6317 51.9589 14.6317C52.5947 14.6185 53.2248 14.7558 53.7982 15.0324C54.3717 15.3091 54.8724 15.7175 55.2602 16.2247V10.968H58.2651V25.4841H55.2602V23.9521C54.8973 24.4948 54.405 24.9373 53.8283 25.2393C53.2516 25.5412 52.6089 25.693 51.9589 25.6806C49.4896 25.6806 47.1382 23.7318 47.1382 20.1799ZM55.3007 20.1799V20.1392C55.3007 18.3701 54.1351 17.1974 52.7303 17.1974C51.3256 17.1974 50.1398 18.3497 50.1398 20.1392V20.1799C50.1398 21.9491 51.3289 23.1218 52.7303 23.1218C54.1317 23.1218 55.3007 21.9423 55.3007 20.1799Z" fill="#00AEEF"/>
<path d="M59.8248 27.5887L60.8556 25.3247C61.9366 25.9707 63.1725 26.3071 64.4298 26.2974C66.4881 26.2974 67.4616 25.3044 67.4616 23.3963V22.8913C66.5723 23.9656 65.6055 24.6198 64.002 24.6198C61.5327 24.6198 59.2858 22.8099 59.2858 19.6511V19.6105C59.2858 16.428 61.5597 14.6385 64.002 14.6385C64.6548 14.6245 65.3022 14.7608 65.8948 15.0369C66.4874 15.3129 67.0095 15.7215 67.4212 16.2314V14.8249H70.4261V23.0777C70.4261 24.9858 69.9713 26.3788 69.0786 27.2735C68.0916 28.2666 66.5689 28.7038 64.514 28.7038C62.8841 28.7213 61.2745 28.3386 59.8248 27.5887ZM67.4549 19.6376V19.5969C67.4549 18.1463 66.3298 17.1295 64.8644 17.1295C63.399 17.1295 62.2974 18.1463 62.2974 19.5969V19.6376C62.2974 21.1085 63.4023 22.1016 64.8644 22.1016C66.3264 22.1016 67.4549 21.0882 67.4549 19.6376Z" fill="#00AEEF"/>
<path d="M36.8839 9.27932C34.5624 5.6231 31.1167 2.81929 27.0649 1.28938C23.0131 -0.240521 18.5742 -0.413834 14.4155 0.795498C10.2567 2.00483 6.60293 4.53145 4.00336 7.99553C1.40379 11.4596 -0.00106362 15.6739 6.03794e-07 20.0049C0.00106483 24.3359 1.40799 28.5495 4.00926 32.0123C6.61053 35.4751 10.2656 38 14.4249 39.2072C18.5842 40.4145 23.0231 40.239 27.0741 38.7071C31.1251 37.1752 34.5694 34.3697 36.8892 30.7124L33.1736 28.3557C31.3642 31.2084 28.6776 33.3967 25.5178 34.5916C22.358 35.7864 18.8957 35.9233 15.6514 34.9817C12.4071 34.04 9.55621 32.0706 7.52722 29.3696C5.49823 26.6686 4.40083 23.382 4.4 20.0038C4.39917 16.6257 5.49496 13.3385 7.52262 10.6365C9.55028 7.93453 12.4002 5.96377 15.6441 5.02049C18.8879 4.07721 22.3502 4.21239 25.5106 5.40572C28.671 6.59904 31.3586 8.78602 33.1695 11.6379L36.8839 9.27932Z" fill="#00AEEF"/>
<g clip-path="url(#clip0)">
<mask id="mask0" mask-type="alpha" maskUnits="userSpaceOnUse" x="8" y="8" width="24" height="24">
<circle cx="20.0102" cy="20.0102" r="11.9456" fill="#C4C4C4"/>
</mask>
<g mask="url(#mask0)">
<path d="M13.8463 12.0793C14.5574 12.0793 15.1338 11.4993 15.1338 10.7839C15.1338 10.0685 14.5574 9.4886 13.8463 9.4886C13.1353 9.4886 12.5588 10.0685 12.5588 10.7839C12.5588 11.4993 13.1353 12.0793 13.8463 12.0793Z" fill="#C54B38"/>
<rect x="11.7917" y="11.0122" width="2.58284" height="6.4571" rx="1.29142" transform="rotate(45 11.7917 11.0122)" fill="#00AEEF"/>
<rect x="6.9975" y="15.8063" width="2.58284" height="3.87426" rx="1.29142" transform="rotate(45 6.9975 15.8063)" fill="#FFB600"/>
<path d="M8.82391 22.124C9.53498 22.124 10.1114 21.5441 10.1114 20.8287C10.1114 20.1133 9.53498 19.5333 8.82391 19.5333C8.11285 19.5333 7.53642 20.1133 7.53642 20.8287C7.53642 21.5441 8.11285 22.124 8.82391 22.124Z" fill="#C54B38"/>
<rect x="13.6181" y="14.2082" width="2.58284" height="6.4571" rx="1.29142" transform="rotate(45 13.6181 14.2082)" fill="#FFB600"/>
<rect x="16.5859" y="11.2404" width="2.58284" height="3.87426" rx="1.29142" transform="rotate(45 16.5859 11.2404)" fill="#A8AD00"/>
<rect x="21.3801" y="6.4463" width="2.58284" height="6.4571" rx="1.29142" transform="rotate(45 21.3801 6.4463)" fill="#00AEEF"/>
<rect x="6.76929" y="21.0571" width="2.58284" height="7.74852" rx="1.29142" transform="rotate(45 6.76929 21.0571)" fill="#00AEEF"/>
<path d="M17.0424 18.9282C17.7535 18.9282 18.3299 18.3483 18.3299 17.6329C18.3299 16.9175 17.7535 16.3376 17.0424 16.3376C16.3314 16.3376 15.7549 16.9175 15.7549 17.6329C15.7549 18.3483 16.3314 18.9282 17.0424 18.9282Z" fill="#A8AD00"/>
<rect x="30.5117" y="2.33731" width="2.58284" height="6.4571" rx="1.29142" transform="rotate(45 30.5117 2.33731)" fill="#C54B38"/>
<rect x="14.9878" y="17.8613" width="2.58284" height="6.4571" rx="1.29142" transform="rotate(45 14.9878 17.8613)" fill="#00AEEF"/>
<rect x="20.0103" y="12.8388" width="2.58284" height="3.87426" rx="1.29142" transform="rotate(45 20.0103 12.8388)" fill="#FFB600"/>
<rect x="10.1937" y="22.6554" width="2.58284" height="9.68565" rx="1.29142" transform="rotate(45 10.1937 22.6554)" fill="#C54B38"/>
<rect x="25.7176" y="7.13141" width="2.58284" height="7.74852" rx="1.29142" transform="rotate(45 25.7176 7.13141)" fill="#A8AD00"/>
<path d="M15.2161 25.7769C15.9272 25.7769 16.5036 25.197 16.5036 24.4816C16.5036 23.7662 15.9272 23.1862 15.2161 23.1862C14.5051 23.1862 13.9286 23.7662 13.9286 24.4816C13.9286 25.197 14.5051 25.7769 15.2161 25.7769Z" fill="#00AEEF"/>
<rect x="27.0873" y="10.7839" width="2.58284" height="6.4571" rx="1.29142" transform="rotate(45 27.0873 10.7839)" fill="#FFB600"/>
<rect x="13.1614" y="24.7098" width="2.58284" height="3.87426" rx="1.29142" transform="rotate(45 13.1614 24.7098)" fill="#FFB600"/>
<rect x="22.2932" y="15.5781" width="2.58284" height="9.68565" rx="1.29142" transform="rotate(45 22.2932 15.5781)" fill="#C54B38"/>
<rect x="7.22583" y="30.6454" width="2.58284" height="6.4571" rx="1.29142" transform="rotate(45 7.22583 30.6454)" fill="#00AEEF"/>
<rect x="10.1937" y="27.6776" width="2.58284" height="3.87426" rx="1.29142" transform="rotate(45 10.1937 27.6776)" fill="#A8AD00"/>
<path d="M12.02 33.9956C12.7311 33.9956 13.3075 33.4157 13.3075 32.7003C13.3075 31.9849 12.7311 31.4049 12.02 31.4049C11.309 31.4049 10.7325 31.9849 10.7325 32.7003C10.7325 33.4157 11.309 33.9956 12.02 33.9956Z" fill="#C54B38"/>
<rect x="35.5342" y="7.35974" width="2.58284" height="7.74852" rx="1.29142" transform="rotate(45 35.5342 7.35974)" fill="#A8AD00"/>
<rect x="14.9878" y="27.9061" width="2.58284" height="3.87426" rx="1.29142" transform="rotate(45 14.9878 27.9061)" fill="#A8AD00"/>
<rect x="29.8268" y="13.0671" width="2.58284" height="3.87426" rx="1.29142" transform="rotate(45 29.8268 13.0671)" fill="#C54B38"/>
<rect x="26.8591" y="16.0349" width="2.58284" height="9.68565" rx="1.29142" transform="rotate(45 26.8591 16.0349)" fill="#00AEEF"/>
<rect x="19.782" y="23.112" width="2.58284" height="6.4571" rx="1.29142" transform="rotate(45 19.782 23.112)" fill="#FFB600"/>
<path d="M25.9459 25.092C26.6569 25.092 27.2334 24.512 27.2334 23.7966C27.2334 23.0812 26.6569 22.5013 25.9459 22.5013C25.2348 22.5013 24.6584 23.0812 24.6584 23.7966C24.6584 24.512 25.2348 25.092 25.9459 25.092Z" fill="#C54B38"/>
<rect x="16.8141" y="31.102" width="2.58284" height="3.87426" rx="1.29142" transform="rotate(45 16.8141 31.102)" fill="#00AEEF"/>
<rect x="28.9136" y="19.0023" width="2.58284" height="3.87426" rx="1.29142" transform="rotate(45 28.9136 19.0023)" fill="#A8AD00"/>
<rect x="23.8912" y="24.0249" width="2.58284" height="9.68565" rx="1.29142" transform="rotate(45 23.8912 24.0249)" fill="#A8AD00"/>
<rect x="33.7078" y="14.2082" width="2.58284" height="6.4571" rx="1.29142" transform="rotate(45 33.7078 14.2082)" fill="#FFB600"/>
<rect x="31.6532" y="21.2853" width="2.58284" height="7.74852" rx="1.29142" transform="rotate(45 31.6532 21.2853)" fill="#00AEEF"/>
<rect x="25.9459" y="26.9926" width="2.58284" height="3.87426" rx="1.29142" transform="rotate(45 25.9459 26.9926)" fill="#FFB600"/>
<rect x="34.621" y="18.3175" width="2.58284" height="3.87426" rx="1.29142" transform="rotate(45 34.621 18.3175)" fill="#C54B38"/>
<rect x="22.978" y="29.9604" width="2.58284" height="9.68565" rx="1.29142" transform="rotate(45 22.978 29.9604)" fill="#00AEEF"/>
</g>
</g>
<defs>
<clipPath id="clip0">
<rect x="8.06458" y="8.06454" width="23.871" height="23.871" rx="11.9355" fill="white"/>
</clipPath>
</defs>
</svg>
