<svg width="207" height="40" viewBox="0 0 207 40" fill="none" xmlns="http://www.w3.org/2000/svg">
<path d="M90.312 14.832H94.376C95.1013 14.832 95.7573 14.9493 96.344 15.184C96.9413 15.4187 97.448 15.7707 97.864 16.24C98.2907 16.6987 98.616 17.28 98.84 17.984C99.0747 18.6773 99.192 19.488 99.192 20.416C99.192 21.344 99.0747 22.16 98.84 22.864C98.616 23.5573 98.2907 24.1387 97.864 24.608C97.448 25.0667 96.9413 25.4133 96.344 25.648C95.7573 25.8827 95.1013 26 94.376 26H90.312V14.832ZM94.376 24.128C95.1653 24.128 95.7893 23.8987 96.248 23.44C96.7173 22.9707 96.952 22.256 96.952 21.296V19.536C96.952 18.576 96.7173 17.8667 96.248 17.408C95.7893 16.9387 95.1653 16.704 94.376 16.704H92.424V24.128H94.376Z" fill="#0093CD"/>
<path d="M104.847 26.192C104.25 26.192 103.711 26.0907 103.231 25.888C102.762 25.6853 102.357 25.392 102.015 25.008C101.685 24.624 101.429 24.1653 101.247 23.632C101.066 23.088 100.975 22.48 100.975 21.808C100.975 21.136 101.066 20.5333 101.247 20C101.429 19.4667 101.685 19.0133 102.015 18.64C102.357 18.256 102.762 17.9627 103.231 17.76C103.711 17.5573 104.25 17.456 104.847 17.456C105.445 17.456 105.983 17.5573 106.463 17.76C106.943 17.9627 107.349 18.256 107.679 18.64C108.021 19.0133 108.282 19.4667 108.463 20C108.645 20.5333 108.735 21.136 108.735 21.808C108.735 22.48 108.645 23.088 108.463 23.632C108.282 24.1653 108.021 24.624 107.679 25.008C107.349 25.392 106.943 25.6853 106.463 25.888C105.983 26.0907 105.445 26.192 104.847 26.192ZM104.847 24.544C105.391 24.544 105.818 24.3787 106.127 24.048C106.437 23.7173 106.591 23.232 106.591 22.592V21.04C106.591 20.4107 106.437 19.9307 106.127 19.6C105.818 19.2693 105.391 19.104 104.847 19.104C104.314 19.104 103.893 19.2693 103.583 19.6C103.274 19.9307 103.119 20.4107 103.119 21.04V22.592C103.119 23.232 103.274 23.7173 103.583 24.048C103.893 24.3787 104.314 24.544 104.847 24.544Z" fill="#0093CD"/>
<path d="M114.167 26.192C113.548 26.192 112.999 26.0907 112.519 25.888C112.039 25.6853 111.634 25.392 111.303 25.008C110.983 24.624 110.738 24.1653 110.567 23.632C110.396 23.088 110.311 22.48 110.311 21.808C110.311 21.136 110.396 20.5333 110.567 20C110.738 19.4667 110.983 19.0133 111.303 18.64C111.634 18.256 112.039 17.9627 112.519 17.76C112.999 17.5573 113.548 17.456 114.167 17.456C115.01 17.456 115.703 17.6427 116.247 18.016C116.802 18.3893 117.202 18.9067 117.447 19.568L115.767 20.32C115.671 19.968 115.49 19.68 115.223 19.456C114.967 19.2213 114.615 19.104 114.167 19.104C113.591 19.104 113.159 19.2853 112.871 19.648C112.594 20.0107 112.455 20.4853 112.455 21.072V22.592C112.455 23.1787 112.594 23.6533 112.871 24.016C113.159 24.368 113.591 24.544 114.167 24.544C114.658 24.544 115.036 24.4213 115.303 24.176C115.57 23.92 115.778 23.6053 115.927 23.232L117.495 23.984C117.218 24.72 116.796 25.2747 116.231 25.648C115.666 26.0107 114.978 26.192 114.167 26.192Z" fill="#0093CD"/>
<path d="M124.386 24.608H124.306C124.231 24.8213 124.13 25.024 124.002 25.216C123.885 25.3973 123.73 25.5627 123.538 25.712C123.357 25.8613 123.133 25.9787 122.866 26.064C122.61 26.1493 122.311 26.192 121.97 26.192C121.106 26.192 120.445 25.9093 119.986 25.344C119.527 24.7787 119.298 23.9733 119.298 22.928V17.648H121.346V22.72C121.346 23.296 121.458 23.7387 121.682 24.048C121.906 24.3467 122.263 24.496 122.754 24.496C122.957 24.496 123.154 24.4693 123.346 24.416C123.549 24.3627 123.725 24.2827 123.874 24.176C124.023 24.0587 124.146 23.92 124.242 23.76C124.338 23.5893 124.386 23.392 124.386 23.168V17.648H126.434V26H124.386V24.608Z" fill="#0093CD"/>
<path d="M129.12 26V17.648H131.168V19.04H131.248C131.408 18.6027 131.664 18.2293 132.016 17.92C132.368 17.6107 132.859 17.456 133.488 17.456C134.064 17.456 134.56 17.5947 134.976 17.872C135.392 18.1493 135.702 18.5707 135.904 19.136H135.936C136.086 18.6667 136.379 18.272 136.816 17.952C137.264 17.6213 137.824 17.456 138.496 17.456C139.318 17.456 139.947 17.7387 140.384 18.304C140.832 18.8693 141.056 19.6747 141.056 20.72V26H139.008V20.928C139.008 19.7333 138.56 19.136 137.664 19.136C137.462 19.136 137.264 19.168 137.072 19.232C136.891 19.2853 136.726 19.3707 136.576 19.488C136.438 19.5947 136.326 19.7333 136.24 19.904C136.155 20.064 136.112 20.256 136.112 20.48V26H134.064V20.928C134.064 19.7333 133.616 19.136 132.72 19.136C132.528 19.136 132.336 19.168 132.144 19.232C131.963 19.2853 131.798 19.3707 131.648 19.488C131.51 19.5947 131.392 19.7333 131.296 19.904C131.211 20.064 131.168 20.256 131.168 20.48V26H129.12Z" fill="#0093CD"/>
<path d="M147.019 26.192C146.401 26.192 145.846 26.0907 145.355 25.888C144.875 25.6747 144.465 25.3813 144.123 25.008C143.793 24.624 143.537 24.1653 143.355 23.632C143.174 23.088 143.083 22.48 143.083 21.808C143.083 21.1467 143.169 20.5493 143.339 20.016C143.521 19.4827 143.777 19.0293 144.107 18.656C144.438 18.272 144.843 17.9787 145.323 17.776C145.803 17.5627 146.347 17.456 146.955 17.456C147.606 17.456 148.171 17.568 148.651 17.792C149.131 18.016 149.526 18.32 149.835 18.704C150.145 19.088 150.374 19.536 150.523 20.048C150.683 20.5493 150.763 21.088 150.763 21.664V22.336H145.211V22.544C145.211 23.152 145.382 23.6427 145.723 24.016C146.065 24.3787 146.571 24.56 147.243 24.56C147.755 24.56 148.171 24.4533 148.491 24.24C148.822 24.0267 149.115 23.7547 149.371 23.424L150.475 24.656C150.134 25.136 149.665 25.5147 149.067 25.792C148.481 26.0587 147.798 26.192 147.019 26.192ZM146.987 18.992C146.443 18.992 146.011 19.1733 145.691 19.536C145.371 19.8987 145.211 20.368 145.211 20.944V21.072H148.635V20.928C148.635 20.352 148.491 19.888 148.203 19.536C147.926 19.1733 147.521 18.992 146.987 18.992Z" fill="#0093CD"/>
<path d="M152.885 26V17.648H154.933V19.04H155.013C155.184 18.592 155.451 18.2187 155.813 17.92C156.187 17.6107 156.699 17.456 157.349 17.456C158.213 17.456 158.875 17.7387 159.333 18.304C159.792 18.8693 160.021 19.6747 160.021 20.72V26H157.973V20.928C157.973 20.3307 157.867 19.8827 157.653 19.584C157.44 19.2853 157.088 19.136 156.597 19.136C156.384 19.136 156.176 19.168 155.973 19.232C155.781 19.2853 155.605 19.3707 155.445 19.488C155.296 19.5947 155.173 19.7333 155.077 19.904C154.981 20.064 154.933 20.256 154.933 20.48V26H152.885Z" fill="#0093CD"/>
<path d="M165.22 26C164.516 26 163.977 25.8187 163.604 25.456C163.241 25.0827 163.06 24.5547 163.06 23.872V19.28H161.828V17.648H162.468C162.777 17.648 162.985 17.5787 163.092 17.44C163.209 17.2907 163.268 17.072 163.268 16.784V15.36H165.108V17.648H166.82V19.28H165.108V24.368H166.692V26H165.22Z" fill="#0093CD"/>
<path d="M175.06 26C174.612 26 174.255 25.872 173.988 25.616C173.732 25.3493 173.572 24.9973 173.508 24.56H173.412C173.273 25.104 172.991 25.5147 172.564 25.792C172.137 26.0587 171.609 26.192 170.98 26.192C170.127 26.192 169.471 25.968 169.012 25.52C168.553 25.072 168.324 24.4747 168.324 23.728C168.324 22.864 168.633 22.224 169.252 21.808C169.871 21.3813 170.751 21.168 171.892 21.168H173.316V20.56C173.316 20.0907 173.193 19.728 172.948 19.472C172.703 19.216 172.308 19.088 171.764 19.088C171.284 19.088 170.895 19.1947 170.596 19.408C170.308 19.6107 170.063 19.856 169.86 20.144L168.644 19.056C168.953 18.576 169.364 18.192 169.876 17.904C170.388 17.6053 171.065 17.456 171.908 17.456C173.039 17.456 173.897 17.712 174.484 18.224C175.071 18.736 175.364 19.472 175.364 20.432V24.368H176.196V26H175.06ZM171.668 24.704C172.127 24.704 172.516 24.6027 172.836 24.4C173.156 24.1973 173.316 23.8987 173.316 23.504V22.4H172.004C170.937 22.4 170.404 22.7413 170.404 23.424V23.696C170.404 24.0373 170.511 24.2933 170.724 24.464C170.948 24.624 171.263 24.704 171.668 24.704Z" fill="#0093CD"/>
<path d="M180.719 26C180.015 26 179.476 25.8187 179.103 25.456C178.74 25.0827 178.559 24.5547 178.559 23.872V19.28H177.327V17.648H177.967C178.276 17.648 178.484 17.5787 178.591 17.44C178.708 17.2907 178.767 17.072 178.767 16.784V15.36H180.607V17.648H182.319V19.28H180.607V24.368H182.191V26H180.719Z" fill="#0093CD"/>
<path d="M185.439 16.432C185.013 16.432 184.703 16.336 184.511 16.144C184.33 15.952 184.239 15.7067 184.239 15.408V15.088C184.239 14.7893 184.33 14.544 184.511 14.352C184.703 14.16 185.013 14.064 185.439 14.064C185.855 14.064 186.159 14.16 186.351 14.352C186.543 14.544 186.639 14.7893 186.639 15.088V15.408C186.639 15.7067 186.543 15.952 186.351 16.144C186.159 16.336 185.855 16.432 185.439 16.432ZM184.415 17.648H186.463V26H184.415V17.648Z" fill="#0093CD"/>
<path d="M192.469 26.192C191.872 26.192 191.333 26.0907 190.853 25.888C190.384 25.6853 189.978 25.392 189.637 25.008C189.306 24.624 189.05 24.1653 188.869 23.632C188.688 23.088 188.597 22.48 188.597 21.808C188.597 21.136 188.688 20.5333 188.869 20C189.05 19.4667 189.306 19.0133 189.637 18.64C189.978 18.256 190.384 17.9627 190.853 17.76C191.333 17.5573 191.872 17.456 192.469 17.456C193.066 17.456 193.605 17.5573 194.085 17.76C194.565 17.9627 194.97 18.256 195.301 18.64C195.642 19.0133 195.904 19.4667 196.085 20C196.266 20.5333 196.357 21.136 196.357 21.808C196.357 22.48 196.266 23.088 196.085 23.632C195.904 24.1653 195.642 24.624 195.301 25.008C194.97 25.392 194.565 25.6853 194.085 25.888C193.605 26.0907 193.066 26.192 192.469 26.192ZM192.469 24.544C193.013 24.544 193.44 24.3787 193.749 24.048C194.058 23.7173 194.213 23.232 194.213 22.592V21.04C194.213 20.4107 194.058 19.9307 193.749 19.6C193.44 19.2693 193.013 19.104 192.469 19.104C191.936 19.104 191.514 19.2693 191.205 19.6C190.896 19.9307 190.741 20.4107 190.741 21.04V22.592C190.741 23.232 190.896 23.7173 191.205 24.048C191.514 24.3787 191.936 24.544 192.469 24.544Z" fill="#0093CD"/>
<path d="M198.493 26V17.648H200.541V19.04H200.621C200.791 18.592 201.058 18.2187 201.421 17.92C201.794 17.6107 202.306 17.456 202.957 17.456C203.821 17.456 204.482 17.7387 204.941 18.304C205.399 18.8693 205.629 19.6747 205.629 20.72V26H203.581V20.928C203.581 20.3307 203.474 19.8827 203.261 19.584C203.047 19.2853 202.695 19.136 202.205 19.136C201.991 19.136 201.783 19.168 201.581 19.232C201.389 19.2853 201.213 19.3707 201.053 19.488C200.903 19.5947 200.781 19.7333 200.685 19.904C200.589 20.064 200.541 20.256 200.541 20.48V26H198.493Z" fill="#0093CD"/>
<path d="M43.1057 23.952C42.7428 24.4947 42.2505 24.9372 41.6738 25.2391C41.0971 25.5411 40.4544 25.6928 39.8044 25.6805C37.3284 25.6805 34.9703 23.7317 34.9703 20.1798V20.1391C34.9703 16.5804 37.2846 14.6316 39.7943 14.6316C40.4301 14.6186 41.06 14.756 41.6334 15.0327C42.2068 15.3093 42.7077 15.7176 43.0956 16.2245V14.8248H46.1005V28.6529H43.0956L43.1057 23.952ZM43.1462 20.173V20.1323C43.1462 18.3631 41.9772 17.1905 40.5758 17.1905C39.1744 17.1905 37.9853 18.3428 37.9853 20.1323V20.1798C37.9853 21.9489 39.1711 23.1216 40.5758 23.1216C41.9806 23.1216 43.1462 21.9422 43.1462 20.1798V20.173Z" fill="#00AEEF"/>
<path d="M47.1382 20.1799V20.1392C47.1382 16.5805 49.4492 14.6317 51.9589 14.6317C52.5947 14.6185 53.2248 14.7558 53.7982 15.0324C54.3717 15.3091 54.8724 15.7175 55.2602 16.2247V10.968H58.2651V25.4841H55.2602V23.9521C54.8973 24.4948 54.405 24.9373 53.8283 25.2393C53.2516 25.5412 52.6089 25.693 51.9589 25.6806C49.4896 25.6806 47.1382 23.7318 47.1382 20.1799ZM55.3007 20.1799V20.1392C55.3007 18.3701 54.1351 17.1974 52.7303 17.1974C51.3256 17.1974 50.1398 18.3497 50.1398 20.1392V20.1799C50.1398 21.9491 51.3289 23.1218 52.7303 23.1218C54.1317 23.1218 55.3007 21.9423 55.3007 20.1799Z" fill="#00AEEF"/>
<path d="M59.8248 27.5887L60.8556 25.3247C61.9366 25.9707 63.1725 26.3071 64.4298 26.2974C66.4881 26.2974 67.4616 25.3044 67.4616 23.3963V22.8913C66.5723 23.9656 65.6055 24.6198 64.002 24.6198C61.5327 24.6198 59.2858 22.8099 59.2858 19.6511V19.6105C59.2858 16.428 61.5597 14.6385 64.002 14.6385C64.6548 14.6245 65.3022 14.7608 65.8948 15.0369C66.4874 15.3129 67.0095 15.7215 67.4212 16.2314V14.8249H70.4261V23.0777C70.4261 24.9858 69.9713 26.3788 69.0786 27.2735C68.0916 28.2666 66.5689 28.7038 64.514 28.7038C62.8841 28.7213 61.2745 28.3386 59.8248 27.5887ZM67.4549 19.6376V19.5969C67.4549 18.1463 66.3298 17.1295 64.8644 17.1295C63.399 17.1295 62.2974 18.1463 62.2974 19.5969V19.6376C62.2974 21.1085 63.4023 22.1016 64.8644 22.1016C66.3264 22.1016 67.4549 21.0882 67.4549 19.6376Z" fill="#00AEEF"/>
<path d="M36.8839 9.27932C34.5624 5.6231 31.1167 2.81929 27.0649 1.28938C23.0131 -0.240521 18.5742 -0.413834 14.4155 0.795498C10.2567 2.00483 6.60293 4.53145 4.00336 7.99553C1.40379 11.4596 -0.00106362 15.6739 6.03794e-07 20.0049C0.00106483 24.3359 1.40799 28.5495 4.00926 32.0123C6.61053 35.4751 10.2656 38 14.4249 39.2072C18.5842 40.4145 23.0231 40.239 27.0741 38.7071C31.1251 37.1752 34.5694 34.3697 36.8892 30.7124L33.1736 28.3557C31.3642 31.2084 28.6776 33.3967 25.5178 34.5916C22.358 35.7864 18.8957 35.9233 15.6514 34.9817C12.4071 34.04 9.55621 32.0706 7.52722 29.3696C5.49823 26.6686 4.40083 23.382 4.4 20.0038C4.39917 16.6257 5.49496 13.3385 7.52262 10.6365C9.55028 7.93453 12.4002 5.96377 15.6441 5.02049C18.8879 4.07721 22.3502 4.21239 25.5106 5.40572C28.671 6.59904 31.3586 8.78602 33.1695 11.6379L36.8839 9.27932Z" fill="#00AEEF"/>
<g clip-path="url(#clip0)">
<mask id="mask0" mask-type="alpha" maskUnits="userSpaceOnUse" x="8" y="8" width="24" height="24">
<circle cx="20.0102" cy="20.0102" r="11.9456" fill="#C4C4C4"/>
</mask>
<g mask="url(#mask0)">
<path d="M13.8463 12.0793C14.5574 12.0793 15.1338 11.4993 15.1338 10.7839C15.1338 10.0685 14.5574 9.4886 13.8463 9.4886C13.1353 9.4886 12.5588 10.0685 12.5588 10.7839C12.5588 11.4993 13.1353 12.0793 13.8463 12.0793Z" fill="#C54B38"/>
<rect x="11.7917" y="11.0122" width="2.58284" height="6.4571" rx="1.29142" transform="rotate(45 11.7917 11.0122)" fill="#00AEEF"/>
<rect x="6.9975" y="15.8063" width="2.58284" height="3.87426" rx="1.29142" transform="rotate(45 6.9975 15.8063)" fill="#FFB600"/>
<rect x="20.9234" y="1.88046" width="2.58284" height="9.68565" rx="1.29142" transform="rotate(45 20.9234 1.88046)" fill="#C54B38"/>
<path d="M8.82391 22.124C9.53498 22.124 10.1114 21.5441 10.1114 20.8287C10.1114 20.1133 9.53498 19.5333 8.82391 19.5333C8.11285 19.5333 7.53642 20.1133 7.53642 20.8287C7.53642 21.5441 8.11285 22.124 8.82391 22.124Z" fill="#C54B38"/>
<rect x="13.6181" y="14.2082" width="2.58284" height="6.4571" rx="1.29142" transform="rotate(45 13.6181 14.2082)" fill="#FFB600"/>
<rect x="16.5859" y="11.2404" width="2.58284" height="3.87426" rx="1.29142" transform="rotate(45 16.5859 11.2404)" fill="#A8AD00"/>
<rect x="21.3801" y="6.4463" width="2.58284" height="6.4571" rx="1.29142" transform="rotate(45 21.3801 6.4463)" fill="#00AEEF"/>
<rect x="6.76929" y="21.0571" width="2.58284" height="7.74852" rx="1.29142" transform="rotate(45 6.76929 21.0571)" fill="#00AEEF"/>
<path d="M17.0424 18.9282C17.7535 18.9282 18.3299 18.3483 18.3299 17.6329C18.3299 16.9175 17.7535 16.3376 17.0424 16.3376C16.3314 16.3376 15.7549 16.9175 15.7549 17.6329C15.7549 18.3483 16.3314 18.9282 17.0424 18.9282Z" fill="#A8AD00"/>
<rect x="30.5117" y="2.33731" width="2.58284" height="6.4571" rx="1.29142" transform="rotate(45 30.5117 2.33731)" fill="#C54B38"/>
<rect x="14.9878" y="17.8613" width="2.58284" height="6.4571" rx="1.29142" transform="rotate(45 14.9878 17.8613)" fill="#00AEEF"/>
<rect x="20.0103" y="12.8388" width="2.58284" height="3.87426" rx="1.29142" transform="rotate(45 20.0103 12.8388)" fill="#FFB600"/>
<rect x="10.1937" y="22.6554" width="2.58284" height="9.68565" rx="1.29142" transform="rotate(45 10.1937 22.6554)" fill="#C54B38"/>
<rect x="25.7176" y="7.13141" width="2.58284" height="7.74852" rx="1.29142" transform="rotate(45 25.7176 7.13141)" fill="#A8AD00"/>
<path d="M15.2161 25.7769C15.9272 25.7769 16.5036 25.197 16.5036 24.4816C16.5036 23.7662 15.9272 23.1862 15.2161 23.1862C14.5051 23.1862 13.9286 23.7662 13.9286 24.4816C13.9286 25.197 14.5051 25.7769 15.2161 25.7769Z" fill="#00AEEF"/>
<rect x="27.0873" y="10.7839" width="2.58284" height="6.4571" rx="1.29142" transform="rotate(45 27.0873 10.7839)" fill="#FFB600"/>
<rect x="13.1614" y="24.7098" width="2.58284" height="3.87426" rx="1.29142" transform="rotate(45 13.1614 24.7098)" fill="#FFB600"/>
<rect x="22.2932" y="15.5781" width="2.58284" height="9.68565" rx="1.29142" transform="rotate(45 22.2932 15.5781)" fill="#C54B38"/>
<rect x="7.22583" y="30.6454" width="2.58284" height="6.4571" rx="1.29142" transform="rotate(45 7.22583 30.6454)" fill="#00AEEF"/>
<rect x="10.1937" y="27.6776" width="2.58284" height="3.87426" rx="1.29142" transform="rotate(45 10.1937 27.6776)" fill="#A8AD00"/>
<path d="M12.02 33.9956C12.7311 33.9956 13.3075 33.4157 13.3075 32.7003C13.3075 31.9849 12.7311 31.4049 12.02 31.4049C11.309 31.4049 10.7325 31.9849 10.7325 32.7003C10.7325 33.4157 11.309 33.9956 12.02 33.9956Z" fill="#C54B38"/>
<rect x="35.5342" y="7.35974" width="2.58284" height="7.74852" rx="1.29142" transform="rotate(45 35.5342 7.35974)" fill="#A8AD00"/>
<rect x="14.9878" y="27.9061" width="2.58284" height="3.87426" rx="1.29142" transform="rotate(45 14.9878 27.9061)" fill="#A8AD00"/>
<rect x="29.8268" y="13.0671" width="2.58284" height="3.87426" rx="1.29142" transform="rotate(45 29.8268 13.0671)" fill="#C54B38"/>
<rect x="26.8591" y="16.0349" width="2.58284" height="9.68565" rx="1.29142" transform="rotate(45 26.8591 16.0349)" fill="#00AEEF"/>
<rect x="19.782" y="23.112" width="2.58284" height="6.4571" rx="1.29142" transform="rotate(45 19.782 23.112)" fill="#FFB600"/>
<path d="M25.9459 25.092C26.6569 25.092 27.2334 24.512 27.2334 23.7966C27.2334 23.0812 26.6569 22.5013 25.9459 22.5013C25.2348 22.5013 24.6584 23.0812 24.6584 23.7966C24.6584 24.512 25.2348 25.092 25.9459 25.092Z" fill="#C54B38"/>
<rect x="16.8141" y="31.102" width="2.58284" height="3.87426" rx="1.29142" transform="rotate(45 16.8141 31.102)" fill="#00AEEF"/>
<rect x="28.9136" y="19.0023" width="2.58284" height="3.87426" rx="1.29142" transform="rotate(45 28.9136 19.0023)" fill="#A8AD00"/>
<rect x="23.8912" y="24.0249" width="2.58284" height="9.68565" rx="1.29142" transform="rotate(45 23.8912 24.0249)" fill="#A8AD00"/>
<rect x="33.7078" y="14.2082" width="2.58284" height="6.4571" rx="1.29142" transform="rotate(45 33.7078 14.2082)" fill="#FFB600"/>
<rect x="31.6532" y="21.2853" width="2.58284" height="7.74852" rx="1.29142" transform="rotate(45 31.6532 21.2853)" fill="#00AEEF"/>
<rect x="25.9459" y="26.9926" width="2.58284" height="3.87426" rx="1.29142" transform="rotate(45 25.9459 26.9926)" fill="#FFB600"/>
<rect x="34.621" y="18.3175" width="2.58284" height="3.87426" rx="1.29142" transform="rotate(45 34.621 18.3175)" fill="#C54B38"/>
<rect x="22.978" y="29.9604" width="2.58284" height="9.68565" rx="1.29142" transform="rotate(45 22.978 29.9604)" fill="#00AEEF"/>
</g>
</g>
<rect x="78.9329" y="4.99576" width="1.9983" height="29.9745" fill="#FFB600"/>
<defs>
<clipPath id="clip0">
<rect x="8.06458" y="8.06454" width="23.871" height="23.871" rx="11.9355" fill="white"/>
</clipPath>
</defs>
</svg>
